<svg xmlns="http://www.w3.org/2000/svg" xmlns:xlink="http://www.w3.org/1999/xlink" version="1.1" width="1000" height="1000" viewBox="0 0 1000 1000" xml:space="preserve">
<desc>Created with Fabric.js 3.5.0</desc>
<defs>
</defs>
<rect x="0" y="0" width="100%" height="100%" fill="rgba(255,255,255,0)"/>
<g transform="matrix(0.0977 0 0 0.0977 70.4657 70.4657)" id="24055">
<g style="" vector-effect="non-scaling-stroke">
		<g transform="matrix(1 0 0 1 1 0.9963)" id="Layer_1">
<path style="stroke: none; stroke-width: 1; stroke-dasharray: none; stroke-linecap: butt; stroke-dashoffset: 0; stroke-linejoin: miter; stroke-miterlimit: 4; is-custom-font: none; font-file-url: none; fill: rgb(255,255,255); fill-rule: nonzero; opacity: 1;" transform=" translate(-257, -256.9964)" d="M 513 278 C 513 356.300812 513 434.601593 513 512.951172 C 342.436737 512.951172 171.873444 512.951172 1 512.951172 C 1 413.644867 1 314.289429 1.367202 214.58075 C 2.140462 215.108749 2.706368 215.951508 2.928901 216.876846 C 7.101566 234.228119 15.676273 248.694183 29.572598 260.232697 C 45.71983 273.640137 63.767254 279.025513 84.362747 274.965912 C 105.198929 270.858826 119.084 258.224396 127.004295 238.814331 C 131.985336 226.607452 133.944595 214.102524 132.188156 200.755936 C 130.511215 188.01358 126.904762 176.041855 119.756584 165.62941 C 104.307617 143.125595 83.834351 129.528748 55.116814 131.969528 C 33.030163 133.84671 13.785286 149.187149 5.964209 169.907364 C 4.426096 173.982269 2.660623 177.971344 1.000002 182 C 1 121.694359 1 61.388714 1 1.041535 C 171.560638 1.041535 342.121307 1.041535 513 1.041535 C 513 85.021744 513 169.0439 512.615845 253.398407 C 509.789154 239.065277 503.206573 226.90535 491.752533 217.082596 C 477.790527 205.109024 461.312042 202.088303 444.171478 204.286209 C 423.40387 206.949234 406.601746 217.680145 393.935944 234.555801 C 379.580444 253.682709 373.883453 274.885376 379.059235 298.480652 C 382.185974 312.734741 389.612366 324.365112 401.483826 333.121887 C 415.59137 343.528137 431.436554 346.940704 448.362488 343.874725 C 473.379211 339.34317 491.827942 325.017487 503.814423 302.893219 C 507.98465 295.195984 510.000305 286.331421 513 278 M 165.434204 237.961639 C 163.558868 239.527527 161.779938 241.229691 159.791733 242.636002 C 150.627853 249.11795 143.174759 257.342804 137.003738 266.534332 C 124.075966 285.789856 111.483429 305.276672 99.068726 324.868408 C 89.692177 339.665619 79.993225 354.350403 71.921555 369.857605 C 63.273403 386.47229 63.059734 404.443024 67.879829 422.504333 C 72.432121 439.562134 81.795891 453.226135 95.59201 464.216095 C 108.42128 474.435913 123.142708 479.477722 139.120285 480.888153 C 152.449142 482.064789 165.304794 479.254517 177.556656 473.844299 C 196.952194 465.279572 217.453583 461.739471 238.456604 461.139526 C 245.762329 460.930817 253.225128 461.756348 260.417877 463.140289 C 270.325562 465.0466 280.304596 467.197784 289.789032 470.554962 C 307.406952 476.791168 324.624359 483.466583 344.043518 480.138977 C 359.953705 477.412628 374.080963 471.270508 385.857758 460.483459 C 400.454193 447.1138 408.796967 430.490875 411.20813 410.514496 C 413.02832 395.434143 411.386139 380.963806 404.208618 368.063324 C 393.586548 348.971832 381.35788 330.77063 369.718445 312.249969 C 362.183929 300.261017 354.350891 288.45871 346.882019 276.429718 C 335.037933 257.354126 319.722595 241.79187 300.179657 230.729233 C 274.96106 216.453857 247.796677 211.864883 219.184998 216.031448 C 199.750504 218.861588 182.070419 226.218628 165.434204 237.961639 M 274.999908 135.325104 C 275.001038 125.00103 275.837402 114.59449 274.828003 104.370186 C 272.78009 83.626122 263.485229 66.201523 248.350449 51.803658 C 231.985916 36.235939 212.160522 30.241297 190.425461 33.308865 C 169.881516 36.208328 153.517288 47.384117 141.665268 64.757133 C 128.00386 84.782425 122.811874 106.655937 125.877274 130.777756 C 127.530869 143.790115 131.089096 156.009109 138.061172 167.020767 C 154.555786 193.07225 177.184875 207.710526 209.223587 203.994095 C 229.895462 201.596207 245.646759 191.016602 258.053223 174.724594 C 266.813721 163.220444 271.920746 150.184814 274.999908 135.325104 M 313.423218 217.03656 C 320.279724 222.354279 328.01712 225.362198 336.508667 227.326431 C 353.789398 231.323776 369.506836 227.792328 384.455505 219.109375 C 392.977386 214.159424 400.293152 207.909424 406.509064 200.126984 C 418.510864 185.100479 424.614014 167.861572 425.864227 149.003159 C 426.879669 133.685913 423.556091 118.949089 415.828613 105.554222 C 405.122284 86.995956 389.091309 75.56781 367.736542 73.146713 C 345.71875 70.650444 326.846954 78.789818 311.015686 93.672508 C 301.879089 102.261665 295.277405 112.838852 290.712036 124.662155 C 284.546814 140.628738 283.270111 157.041016 286.390747 173.686874 C 289.691925 191.295685 298.83905 205.632996 313.423218 217.03656 z" stroke-linecap="round"/>
</g>
		<g transform="matrix(1 0 0 1 -189.0898 -52.0116)" id="Layer_1">
<path style="stroke: none; stroke-width: 1; stroke-dasharray: none; stroke-linecap: butt; stroke-dashoffset: 0; stroke-linejoin: miter; stroke-miterlimit: 4; is-custom-font: none; font-file-url: none; fill: rgb(0,0,0); fill-rule: nonzero; opacity: 1;" transform=" translate(-66.9102, -203.9884)" d="M 1.000002 182.468658 C 2.660623 177.971344 4.426096 173.982269 5.964209 169.907364 C 13.785286 149.187149 33.030163 133.84671 55.116814 131.969528 C 83.834351 129.528748 104.307617 143.125595 119.756584 165.62941 C 126.904762 176.041855 130.511215 188.01358 132.188156 200.755936 C 133.944595 214.102524 131.985336 226.607452 127.004295 238.814331 C 119.084 258.224396 105.198929 270.858826 84.362747 274.965912 C 63.767254 279.025513 45.71983 273.640137 29.572598 260.232697 C 15.676273 248.694183 7.101566 234.228119 2.928901 216.876846 C 2.706368 215.951508 2.140462 215.108749 1.367202 214.11377 C 1 203.645767 1 193.29155 1.000002 182.468658 z" stroke-linecap="round"/>
</g>
		<g transform="matrix(1 0 0 1 189.0902 18.2898)" id="Layer_1">
<path style="stroke: none; stroke-width: 1; stroke-dasharray: none; stroke-linecap: butt; stroke-dashoffset: 0; stroke-linejoin: miter; stroke-miterlimit: 4; is-custom-font: none; font-file-url: none; fill: rgb(0,0,0); fill-rule: nonzero; opacity: 1;" transform=" translate(-445.0902, -274.2898)" d="M 513 277.531372 C 510.000305 286.331421 507.98465 295.195984 503.814423 302.893219 C 491.827942 325.017487 473.379211 339.34317 448.362488 343.874725 C 431.436554 346.940704 415.59137 343.528137 401.483826 333.121887 C 389.612366 324.365112 382.185974 312.734741 379.059235 298.480652 C 373.883453 274.885376 379.580444 253.682709 393.935944 234.555801 C 406.601746 217.680145 423.40387 206.949234 444.171478 204.286209 C 461.312042 202.088303 477.790527 205.109024 491.752533 217.082596 C 503.206573 226.90535 509.789154 239.065277 512.615845 253.865387 C 513 261.687592 513 269.375153 513 277.531372 z" stroke-linecap="round"/>
</g>
		<g transform="matrix(1 0 0 1 -17.6929 91.855)" id="Layer_1">
<path style="stroke: none; stroke-width: 1; stroke-dasharray: none; stroke-linecap: butt; stroke-dashoffset: 0; stroke-linejoin: miter; stroke-miterlimit: 4; is-custom-font: none; font-file-url: none; fill: rgb(0,0,0); fill-rule: nonzero; opacity: 1;" transform=" translate(-238.3072, -347.855)" d="M 165.71904 237.724091 C 182.070419 226.218628 199.750504 218.861588 219.184998 216.031448 C 247.796677 211.864883 274.96106 216.453857 300.179657 230.729233 C 319.722595 241.79187 335.037933 257.354126 346.882019 276.429718 C 354.350891 288.45871 362.183929 300.261017 369.718445 312.249969 C 381.35788 330.77063 393.586548 348.971832 404.208618 368.063324 C 411.386139 380.963806 413.02832 395.434143 411.20813 410.514496 C 408.796967 430.490875 400.454193 447.1138 385.857758 460.483459 C 374.080963 471.270508 359.953705 477.412628 344.043518 480.138977 C 324.624359 483.466583 307.406952 476.791168 289.789032 470.554962 C 280.304596 467.197784 270.325562 465.0466 260.417877 463.140289 C 253.225128 461.756348 245.762329 460.930817 238.456604 461.139526 C 217.453583 461.739471 196.952194 465.279572 177.556656 473.844299 C 165.304794 479.254517 152.449142 482.064789 139.120285 480.888153 C 123.142708 479.477722 108.42128 474.435913 95.59201 464.216095 C 81.795891 453.226135 72.432121 439.562134 67.879829 422.504333 C 63.059734 404.443024 63.273403 386.47229 71.921555 369.857605 C 79.993225 354.350403 89.692177 339.665619 99.068726 324.868408 C 111.483429 305.276672 124.075966 285.789856 137.003738 266.534332 C 143.174759 257.342804 150.627853 249.11795 159.791733 242.636002 C 161.779938 241.229691 163.558868 239.527527 165.71904 237.724091 z" stroke-linecap="round"/>
</g>
		<g transform="matrix(1 0 0 1 -55.8244 -137.4508)" id="Layer_1">
<path style="stroke: none; stroke-width: 1; stroke-dasharray: none; stroke-linecap: butt; stroke-dashoffset: 0; stroke-linejoin: miter; stroke-miterlimit: 4; is-custom-font: none; font-file-url: none; fill: rgb(0,0,0); fill-rule: nonzero; opacity: 1;" transform=" translate(-200.1757, -118.5492)" d="M 274.999023 135.771851 C 271.920746 150.184814 266.813721 163.220444 258.053223 174.724594 C 245.646759 191.016602 229.895462 201.596207 209.223587 203.994095 C 177.184875 207.710526 154.555786 193.07225 138.061172 167.020767 C 131.089096 156.009109 127.530869 143.790115 125.877274 130.777756 C 122.811874 106.655937 128.00386 84.782425 141.665268 64.757133 C 153.517288 47.384117 169.881516 36.208328 190.425461 33.308865 C 212.160522 30.241297 231.985916 36.235939 248.350449 51.803658 C 263.485229 66.201523 272.78009 83.626122 274.828003 104.370186 C 275.837402 114.59449 275.001038 125.00103 274.999023 135.771851 z" stroke-linecap="round"/>
</g>
		<g transform="matrix(1 0 0 1 99.3967 -105.1667)" id="Layer_1">
<path style="stroke: none; stroke-width: 1; stroke-dasharray: none; stroke-linecap: butt; stroke-dashoffset: 0; stroke-linejoin: miter; stroke-miterlimit: 4; is-custom-font: none; font-file-url: none; fill: rgb(0,0,0); fill-rule: nonzero; opacity: 1;" transform=" translate(-355.3967, -150.8333)" d="M 313.057068 217.004715 C 298.83905 205.632996 289.691925 191.295685 286.390747 173.686874 C 283.270111 157.041016 284.546814 140.628738 290.712036 124.662155 C 295.277405 112.838852 301.879089 102.261665 311.015686 93.672508 C 326.846954 78.789818 345.71875 70.650444 367.736542 73.146713 C 389.091309 75.56781 405.122284 86.995956 415.828613 105.554222 C 423.556091 118.949089 426.879669 133.685913 425.864227 149.003159 C 424.614014 167.861572 418.510864 185.100479 406.509064 200.126984 C 400.293152 207.909424 392.977386 214.159424 384.455505 219.109375 C 369.506836 227.792328 353.789398 231.323776 336.508667 227.326431 C 328.01712 225.362198 320.279724 222.354279 313.057068 217.004715 z" stroke-linecap="round"/>
</g>
</g>
</g>
</svg>