<svg id="visual" viewBox="0 0 900 600" width="900" height="600" xmlns="http://www.w3.org/2000/svg" xmlns:xlink="http://www.w3.org/1999/xlink" version="1.1"><path d="M0 421L13.7 416C27.3 411 54.7 401 82 412.5C109.3 424 136.7 457 163.8 477.3C191 497.7 218 505.3 245.2 503C272.3 500.7 299.7 488.3 327 476.7C354.3 465 381.7 454 409 453.7C436.3 453.3 463.7 463.7 491 461.7C518.3 459.7 545.7 445.3 573 448.7C600.3 452 627.7 473 654.8 465.5C682 458 709 422 736.2 423C763.3 424 790.7 462 818 470.2C845.3 478.3 872.7 456.7 886.3 445.8L900 435L900 601L886.3 601C872.7 601 845.3 601 818 601C790.7 601 763.3 601 736.2 601C709 601 682 601 654.8 601C627.7 601 600.3 601 573 601C545.7 601 518.3 601 491 601C463.7 601 436.3 601 409 601C381.7 601 354.3 601 327 601C299.7 601 272.3 601 245.2 601C218 601 191 601 163.8 601C136.7 601 109.3 601 82 601C54.7 601 27.3 601 13.7 601L0 601Z" fill="#ffffff" stroke-linecap="round" stroke-linejoin="miter"></path></svg>